Coordinates
version=1
nRows=43
nColumns=12
inDegrees=yes

Units are S.I. units (second, meters, Newtons, ...)
Angles are in degrees

endheader
time	SC_y	SC_z	SC_x	AC_y	AC_z	AC_x	GH_y	GH_z	GH_yy	EL_x	PS_y
       0.0               -32.0          11.41          77.19          36.31          6.062          14.13         -45.01          37.15         -38.71           11.7          153.2
   0.04083               -32.0           11.4          77.19          36.31           6.06          14.13         -44.99          37.15         -38.68          11.71          153.2
   0.08166               -32.0           11.4          77.18          36.32          6.058          14.13         -44.97          37.14         -38.65          11.72          153.2
    0.1225               -32.0           11.4          77.18          36.32          6.056          14.13         -44.95          37.14         -38.61          11.73          153.2
    0.1633              -32.01           11.4          77.18          36.32          6.054          14.13         -44.93          37.14         -38.57          11.73          153.1
    0.2041              -32.01          11.39          77.18          36.33          6.051          14.13          -44.9          37.13         -38.53          11.74          153.1
     0.245              -32.01          11.39          77.17          36.33          6.049          14.13         -44.88          37.13         -38.49          11.75          153.1
    0.2858              -32.02          11.39          77.17          36.34          6.046          14.13         -44.85          37.12         -38.44          11.76          153.1
    0.3266              -32.02          11.38          77.17          36.34          6.043          14.13         -44.82          37.12         -38.39          11.77          153.1
    0.3675              -32.02          11.38          77.16          36.35           6.04          14.13         -44.79          37.11         -38.34          11.78          153.0
    0.4083              -32.03          11.38          77.16          36.35          6.036          14.13         -44.75          37.11         -38.28          11.79          153.0
    0.4491              -32.03          11.37          77.15          36.36          6.033          14.13         -44.72           37.1         -38.22           11.8          153.0
    0.4899              -32.04          11.37          77.15          36.37          6.029          14.13         -44.68          37.09         -38.15          11.82          153.0
    0.5308              -32.04          11.36          77.14          36.37          6.025          14.13         -44.63          37.09         -38.08          11.83          152.9
    0.5716              -32.05          11.36          77.14          36.38           6.02          14.13         -44.59          37.08          -38.0          11.85          152.9
    0.6124              -32.06          11.35          77.13          36.39          6.015          14.13         -44.54          37.07         -37.92          11.86          152.9
    0.6532              -32.06          11.34          77.12           36.4           6.01          14.13         -44.48          37.06         -37.83          11.88          152.8
    0.6941              -32.07          11.34          77.12          36.41          6.004          14.13         -44.42          37.05         -37.73           11.9          152.8
    0.7349              -32.08          11.33          77.11          36.42          5.997          14.13         -44.36          37.04         -37.62          11.93          152.7
    0.7757              -32.09          11.32           77.1          36.43           5.99          14.13         -44.29          37.03          -37.5          11.95          152.7
    0.8166               -32.1          11.31          77.09          36.45          5.983          14.13         -44.21          37.02         -37.37          11.98          152.6
    0.8574              -32.11           11.3          77.08          36.46          5.974          14.13         -44.12           37.0         -37.23           12.0          152.6
    0.8982              -32.12          11.29          77.07          36.48          5.965          14.13         -44.03          36.98         -37.07          12.04          152.5
     0.939              -32.13          11.28          77.06           36.5          5.954          14.13         -43.92          36.97         -36.89          12.07          152.4
    0.9799              -32.15          11.27          77.04          36.52          5.943          14.14         -43.81          36.95          -36.7          12.11          152.4
     1.021              -32.16          11.25          77.03          36.54           5.93          14.14         -43.68          36.93         -36.48          12.16          152.3
     1.062              -32.18          11.23          77.01          36.56          5.916          14.14         -43.53           36.9         -36.23          12.21          152.2
     1.102               -32.2          11.21          76.99          36.59          5.899          14.14         -43.37          36.87         -35.96          12.26          152.0
     1.143              -32.22          11.19          76.96          36.63          5.881          14.14         -43.18          36.84         -35.65          12.32          151.9
     1.184              -32.25          11.17          76.94          36.66           5.86          14.14         -42.97          36.81         -35.29           12.4          151.8
     1.225              -32.28          11.14          76.91           36.7          5.836          14.14         -42.73          36.77         -34.89          12.48          151.6
     1.266              -32.31          11.11          76.88          36.75          5.809          14.14         -42.45          36.72         -34.43          12.57          151.4
     1.306              -32.35          11.07          76.84          36.81          5.778          14.14         -42.14          36.66         -33.89          12.68          151.2
     1.347               -32.4          11.03          76.79          36.87          5.741          14.14         -41.77           36.6         -33.27          12.81          150.9
     1.388              -32.45          10.97          76.74          36.94          5.698          14.14         -41.33          36.53         -32.55          12.95          150.6
     1.429              -32.51          10.91          76.67          37.03          5.648          14.15         -40.82          36.44         -31.69          13.13          150.3
      1.47              -32.59          10.84           76.6          37.14          5.588          14.15         -40.21          36.34         -30.67          13.33          149.8
     1.511              -32.68          10.76          76.51          37.26          5.516          14.15         -39.49          36.22         -29.45          13.58          149.3
     1.551              -32.79          10.65           76.4          37.41          5.429          14.16         -38.61          36.07         -27.98          13.88          148.7
     1.592              -32.92          10.53          76.27           37.6          5.323          14.16         -37.53          35.89         -26.18          14.24          147.9
     1.633              -33.09          10.37          76.11          37.83          5.191          14.16          -36.2          35.66         -23.95          14.69          147.0
     1.674              -33.29          10.18           75.9          38.11          5.028          14.17         -34.55          35.38         -21.18          15.25          145.8
     1.715              -33.55          9.932          75.65          38.47          4.822          14.18         -32.46          35.03         -17.68          15.96          144.4
